<svg xmlns="http://www.w3.org/2000/svg" xmlns:xlink="http://www.w3.org/1999/xlink" version="1.1" x="0px" y="0px" viewBox="0 0 100 100" enable-background="new 0 0 100 100" xml:space="preserve"><g><polygon points="90,82.93 66.088,59.018 59.018,66.088 82.93,90 72.404,90 72.404,100 100,100 100,72.404 90,72.404  "/><polygon points="27.596,10 27.596,0 0,0 0,27.596 10,27.596 10,17.071 33.912,40.983 40.983,33.912 17.071,10  "/><polygon points="72.404,0 72.404,10 82.929,10 59.018,33.912 66.088,40.983 90,17.071 90,27.596 100,27.596 100,0  "/><polygon points="33.912,59.018 10,82.929 10,72.404 0,72.404 0,100 27.596,100 27.596,90 17.071,90 40.983,66.088  "/></g></svg>